<?xml version="1.0" encoding="UTF-8"?>
<svg id="Layer_2" data-name="Layer 2" xmlns="http://www.w3.org/2000/svg" viewBox="0 0 32.03 60.29">
  <defs>
    <style>
      .cls-1 {
        fill: #ffb000;
        stroke: #ffb000;
      }

      .cls-1, .cls-2 {
        stroke-miterlimit: 10;
        stroke-width: .75px;
      }

      .cls-2 {
        fill: #36f;
        stroke: #36f;
      }
    </style>
  </defs>
  <g id="Layer_1-2" data-name="Layer 1">
    <path class="cls-1" d="m14.99,59.91V19.05h6.5c3.31,0,5.84-.81,7.57-2.43,1.73-1.62,2.6-3.95,2.6-7s-.97-5.26-2.92-6.85c-1.95-1.6-4.78-2.39-8.48-2.39h-8.92v5.77h0v53.77h3.67Zm0-53.29h5.58c1.73,0,3.16.12,4.29.35,1.13.23,1.98.57,2.54,1.02.56.45.84,1.01.84,1.66,0,.71-.28,1.29-.84,1.75-.56.46-1.41.81-2.54,1.04-1.13.23-2.56.35-4.29.35h-5.58v-6.18Z"/>
    <rect class="cls-2" x="5.43" y="30.86" width="19.83" height="6.66"/>
    <polygon class="cls-2" points="7.46 30.86 4.28 30.86 4.28 .38 .38 .38 .38 37.52 .38 37.52 .38 43.21 4.27 43.21 4.27 37.52 5.96 37.52 5.96 37.52 7.46 37.52 7.46 30.86"/>
    <polygon class="cls-2" points="29.8 39.02 29.8 25.86 25.91 25.86 25.91 30.86 24.24 30.86 24.24 37.52 25.91 37.52 25.91 59.91 29.82 59.91 29.82 39.02 29.8 39.02"/>
  </g>
</svg>