<?xml version="1.0" encoding="UTF-8"?>
<svg id="Layer_2" data-name="Layer 2" xmlns="http://www.w3.org/2000/svg" viewBox="0 0 29.44 77.3">
  <defs>
    <style>
      .cls-1 {
        fill: #ffb000;
      }

      .cls-2 {
        fill: #36f;
      }
    </style>
  </defs>
  <g id="Layer_1-2" data-name="Layer 1">
    <path class="cls-1" d="m26.52,2.39C24.57.8,21.74,0,18.04,0h-8.92v5.77h0v71.53h3.67V18.68h6.5c3.31,0,5.84-.81,7.57-2.43,1.73-1.62,2.6-3.95,2.6-7s-.97-5.26-2.92-6.85Zm-1.32,8.64c-.56.46-1.41.81-2.54,1.04-1.13.23-2.56.35-4.29.35h-5.58v-6.18h5.58c1.73,0,3.16.12,4.29.35,1.13.23,1.98.57,2.54,1.02.56.45.84,1.01.84,1.66,0,.71-.28,1.29-.84,1.75Z"/>
    <polygon class="cls-2" points="0 0 0 32.09 0 33.44 0 37.14 0 37.14 0 42.83 3.89 42.83 3.89 37.14 5.59 37.14 5.59 37.14 18.6 37.14 18.6 77.29 22.51 77.29 22.51 38.64 22.5 38.64 22.5 35.03 22.5 30.41 22.5 25.48 18.6 25.48 18.6 30.41 18.6 30.48 3.91 30.48 3.91 0 0 0"/>
  </g>
</svg>