<?xml version="1.0" encoding="UTF-8"?>
<svg id="Layer_1" data-name="Layer 1" xmlns="http://www.w3.org/2000/svg" viewBox="0 0 796.85 2163.11">
  <defs>
    <style>
      .cls-1 {
        fill: #ffb000;
      }
    </style>
  </defs>
  <path class="cls-1" d="m94.7,396.39c-9.6-7.86-23.52-11.79-41.76-11.79H9.02v28.4h-.05v1750.11h18.08V476.58h32.01c16.32,0,28.74-3.99,37.26-11.97,8.52-7.98,12.78-19.47,12.78-34.47s-4.8-25.89-14.4-33.75Zm-6.48,42.57c-2.76,2.28-6.93,3.99-12.51,5.13-5.58,1.14-12.63,1.71-21.15,1.71h-27.51v-30.42h27.51c8.52,0,15.57.57,21.15,1.71,5.58,1.14,9.75,2.82,12.51,5.04,2.76,2.22,4.14,4.95,4.14,8.19,0,3.48-1.38,6.36-4.14,8.64Z"/>
  <path class="cls-1" d="m194.24,418.71c-7.32-4.14-15.96-6.21-25.92-6.21s-18.78,2.07-26.1,6.21c-7.32,4.14-12.87,10.14-16.65,18-3.78,7.86-5.67,17.25-5.67,28.17s1.89,20.52,5.67,28.44,9.33,13.98,16.65,18.18c7.32,4.2,16.02,6.3,26.1,6.3s18.6-2.1,25.92-6.3c7.32-4.2,12.9-10.26,16.74-18.18,3.84-7.92,5.76-17.4,5.76-28.44s-1.92-20.31-5.76-28.17c-3.84-7.86-9.42-13.86-16.74-18Zm-1.44,61.38c-5.88,3.66-14.04,5.49-24.48,5.49s-18.78-1.83-24.66-5.49c-5.88-3.66-8.82-8.73-8.82-15.21s2.94-11.31,8.82-14.85c5.88-3.54,14.1-5.31,24.66-5.31s18.6,1.77,24.48,5.31c5.88,3.54,8.82,8.49,8.82,14.85s-2.94,11.55-8.82,15.21Z"/>
  <path class="cls-1" d="m270.74,418.44c-5.88,3.96-11.16,9.96-15.84,18h-1.08l-.9-22.14h-15.48v101.7h18v-44.64c0-4.32.54-8.34,1.62-12.06,1.08-3.72,3.81-7.17,8.19-10.35,4.38-3.18,10.95-4.77,19.71-4.77,8.04,0,15.6,1.32,22.68,3.96v-31.5c-5.28-2.76-10.86-4.14-16.74-4.14-7.56,0-14.28,1.98-20.16,5.94Z"/>
  <path class="cls-1" d="m369.2,382.8h-10.08c-2.28,6.72-5.46,12.69-9.54,17.91-4.08,5.22-8.88,9.45-14.4,12.69-5.52,3.24-11.7,5.34-18.54,6.3v13.14h34.56v83.16h18v-83.16h35.1v-18.54h-35.1v-31.5Z"/>
  <path class="cls-1" d="m437.33,384.33c-7.14,6.3-10.71,14.91-10.71,25.83,0,1.38.07,2.76.19,4.14h-21.43v18.54h21.24v83.16h18v-83.16h35.46v-18.54h-36.54c0-3,1.74-5.37,5.22-7.11,3.48-1.74,8.1-2.61,13.86-2.61,2.88,0,6,.24,9.36.72,3.36.48,6.06,1.08,8.1,1.8v-30.6c-4.56-1.08-9.3-1.62-14.22-1.62-11.88,0-21.39,3.15-28.53,9.45Z"/>
  <path class="cls-1" d="m561.62,418.71c-7.32-4.14-15.96-6.21-25.92-6.21s-18.78,2.07-26.1,6.21c-7.32,4.14-12.87,10.14-16.65,18-3.78,7.86-5.67,17.25-5.67,28.17s1.89,20.52,5.67,28.44,9.33,13.98,16.65,18.18c7.32,4.2,16.02,6.3,26.1,6.3s18.6-2.1,25.92-6.3c7.32-4.2,12.9-10.26,16.74-18.18,3.84-7.92,5.76-17.4,5.76-28.44s-1.92-20.31-5.76-28.17c-3.84-7.86-9.42-13.86-16.74-18Zm-1.44,61.38c-5.88,3.66-14.04,5.49-24.48,5.49s-18.78-1.83-24.66-5.49c-5.88-3.66-8.82-8.73-8.82-15.21s2.94-11.31,8.82-14.85c5.88-3.54,14.1-5.31,24.66-5.31s18.6,1.77,24.48,5.31c5.88,3.54,8.82,8.49,8.82,14.85s-2.94,11.55-8.82,15.21Z"/>
  <path class="cls-1" d="m661.69,375.6c-3.96,0-7.08,1.17-9.36,3.51-2.28,2.34-3.42,5.61-3.42,9.81s1.14,7.71,3.42,10.17c2.28,2.46,5.46,3.69,9.54,3.69s7.47-1.23,9.81-3.69c2.34-2.46,3.51-5.85,3.51-10.17s-1.2-7.47-3.6-9.81c-2.4-2.34-5.7-3.51-9.9-3.51Z"/>
  <rect class="cls-1" x="652.51" y="414.3" width="18.72" height="101.7"/>
  <path class="cls-1" d="m784.09,436.71c-3.84-7.86-9.42-13.86-16.74-18-7.32-4.14-15.96-6.21-25.92-6.21s-18.78,2.07-26.1,6.21c-7.32,4.14-12.87,10.14-16.65,18-3.78,7.86-5.67,17.25-5.67,28.17s1.89,20.52,5.67,28.44c3.78,7.92,9.33,13.98,16.65,18.18,7.32,4.2,16.02,6.3,26.1,6.3s18.6-2.1,25.92-6.3c7.32-4.2,12.9-10.26,16.74-18.18,3.84-7.92,5.76-17.4,5.76-28.44s-1.92-20.31-5.76-28.17Zm-18.18,43.38c-5.88,3.66-14.04,5.49-24.48,5.49s-18.78-1.83-24.66-5.49c-5.88-3.66-8.82-8.73-8.82-15.21s2.94-11.31,8.82-14.85c5.88-3.54,14.1-5.31,24.66-5.31s18.6,1.77,24.48,5.31c5.88,3.54,8.82,8.49,8.82,14.85s-2.94,11.55-8.82,15.21Z"/>
  <polygon class="cls-1" points="605.13 438 605.17 438 605.17 516 623.89 516 623.89 438 623.93 438 623.93 0 605.13 0 605.13 438"/>
</svg>