<?xml version="1.0" encoding="UTF-8"?>
<svg id="Layer_1" data-name="Layer 1" xmlns="http://www.w3.org/2000/svg" viewBox="0 0 210.31 55.77">
  <defs>
    <style>
      .cls-1, .cls-2 {
        fill: none;
      }

      .cls-3 {
        fill: #eeedef;
      }

      .cls-2 {
        stroke: #2571fb;
        stroke-width: 5px;
      }

      .cls-4 {
        isolation: isolate;
      }
    </style>
  </defs>
  <g id="Rectangle_41" data-name="Rectangle 41">
    <path class="cls-1" d="m27.88,1.11h154.54c14.79,0,26.78,11.99,26.78,26.78h0c0,14.79-11.99,26.78-26.78,26.78H27.88c-14.79,0-26.78-11.99-26.78-26.78h0C1.11,13.09,13.09,1.11,27.88,1.11Z"/>
    <path class="cls-2" d="m27.88,2.5h154.54c14.02,0,25.38,11.37,25.38,25.38h0c0,14.02-11.36,25.38-25.38,25.38H27.88c-14.02,0-25.38-11.37-25.38-25.38h0C2.5,13.87,13.87,2.5,27.88,2.5Z"/>
  </g>
  <g id="Om_mig-2" data-name="Om mig-2">
    <g class="cls-4">
      <path class="cls-3" d="m67.91,26.73c0-.84.16-1.63.48-2.38.32-.75.76-1.41,1.32-1.99s1.22-1.03,1.97-1.36c.75-.32,1.55-.49,2.41-.49s1.66.16,2.41.49c.75.32,1.41.78,1.98,1.36.57.58,1.02,1.24,1.35,1.99.32.75.49,1.54.49,2.38s-.16,1.66-.49,2.41c-.32.75-.78,1.41-1.36,1.97s-1.24,1.01-1.98,1.33c-.74.32-1.54.48-2.4.48s-1.66-.16-2.41-.47c-.75-.31-1.4-.75-1.97-1.31s-1-1.22-1.32-1.97c-.32-.75-.48-1.56-.48-2.44Zm1.84,0c0,.62.11,1.21.33,1.75.22.54.54,1.02.94,1.42.4.41.87.72,1.4.95.53.23,1.1.34,1.71.34s1.17-.11,1.69-.34c.52-.23.99-.55,1.38-.95.4-.41.71-.88.93-1.42.22-.54.33-1.12.33-1.75s-.11-1.21-.34-1.75-.54-1.02-.93-1.43c-.39-.41-.85-.74-1.39-.97-.54-.23-1.11-.35-1.72-.35s-1.19.12-1.72.35-.99.56-1.39.97c-.4.41-.7.89-.91,1.44-.21.55-.32,1.13-.32,1.74Z"/>
      <path class="cls-3" d="m84.13,25.8l.15,1.49-.07-.13c.27-.51.64-.92,1.1-1.21s1-.44,1.61-.44c.39,0,.74.06,1.04.17.3.12.55.29.76.53.21.23.34.52.39.85l-.08.05c.28-.51.65-.91,1.12-1.19.47-.28.96-.42,1.47-.42.68,0,1.22.19,1.63.58s.62.89.63,1.51v5.21h-1.71v-4.55c-.01-.35-.09-.64-.24-.88-.15-.24-.42-.37-.79-.38-.4,0-.76.12-1.06.37-.31.25-.54.56-.71.95-.17.39-.26.81-.27,1.25v3.23h-1.72v-4.55c-.01-.35-.09-.64-.25-.88-.16-.24-.43-.37-.82-.38-.4,0-.75.12-1.05.37-.3.25-.53.57-.69.96-.17.4-.25.82-.25,1.26v3.21h-1.72v-7h1.54Z"/>
      <path class="cls-3" d="m103.39,25.8l.15,1.49-.07-.13c.27-.51.64-.92,1.1-1.21s1-.44,1.61-.44c.39,0,.74.06,1.04.17.3.12.55.29.76.53.21.23.34.52.39.85l-.08.05c.28-.51.65-.91,1.12-1.19.47-.28.96-.42,1.47-.42.68,0,1.22.19,1.63.58.41.38.62.89.63,1.51v5.21h-1.71v-4.55c-.01-.35-.09-.64-.24-.88-.15-.24-.42-.37-.79-.38-.4,0-.76.12-1.06.37s-.54.56-.71.95c-.17.39-.26.81-.27,1.25v3.23h-1.72v-4.55c-.01-.35-.09-.64-.25-.88-.16-.24-.43-.37-.82-.38-.4,0-.75.12-1.05.37s-.53.57-.69.96c-.17.4-.25.82-.25,1.26v3.21h-1.72v-7h1.54Z"/>
      <path class="cls-3" d="m115.69,23.27c0-.27.11-.49.33-.67.22-.18.45-.27.69-.27s.47.09.67.27c.2.18.3.4.3.67s-.1.49-.3.67c-.2.18-.42.27-.67.27s-.48-.09-.69-.27c-.22-.18-.33-.4-.33-.67Zm.1,2.53h1.72v7h-1.72v-7Z"/>
      <path class="cls-3" d="m123.57,36.29c-.55,0-1.02-.07-1.43-.2s-.77-.31-1.08-.52-.61-.44-.89-.69l.99-1.19c.36.32.72.58,1.09.78s.8.29,1.29.29.91-.08,1.26-.24c.35-.16.62-.39.81-.68.19-.29.28-.64.28-1.04l.02-1.82.12.35c-.19.45-.54.83-1.05,1.16-.51.32-1.14.49-1.89.49-.65,0-1.24-.17-1.77-.49-.54-.33-.96-.77-1.29-1.33-.32-.56-.49-1.19-.49-1.91s.17-1.37.51-1.93c.34-.56.79-1.01,1.34-1.34.55-.33,1.15-.49,1.8-.49s1.18.12,1.67.36c.49.24.86.54,1.1.9l-.1.28.2-1.22h1.56v7.03c0,.65-.17,1.23-.5,1.75-.33.52-.8.93-1.41,1.25s-1.32.47-2.14.47Zm-2.29-7.08c0,.44.1.83.3,1.19.2.36.48.64.83.85.35.21.75.31,1.18.31.39,0,.74-.07,1.05-.2s.58-.32.79-.57c.22-.25.38-.53.48-.85v-1.46c-.1-.31-.26-.59-.49-.83-.22-.24-.49-.43-.8-.56s-.66-.2-1.04-.2c-.43,0-.83.1-1.18.3-.35.2-.63.47-.83.82-.2.35-.3.75-.3,1.21Z"/>
    </g>
  </g>
  <g id="Group_16" data-name="Group 16">
    <g id="Line_1" data-name="Line 1">
      <path class="cls-3" d="m149.45,32.87c0-.23.08-.45.23-.64l5.97-7.15c.35-.42.98-.48,1.41-.13s.48.98.13,1.41l-5.97,7.15c-.35.42-.98.48-1.41.13-.24-.2-.36-.48-.36-.77Z"/>
    </g>
    <g id="Line_2" data-name="Line 2">
      <path class="cls-3" d="m143.48,25.72c0-.29.12-.57.36-.77.42-.35,1.05-.3,1.41.13l5.97,7.15c.35.42.3,1.05-.13,1.41s-1.05.3-1.41-.13l-5.97-7.15c-.16-.19-.23-.41-.23-.64Z"/>
    </g>
  </g>
</svg>