<?xml version="1.0" encoding="UTF-8"?>
<svg id="Layer_1" data-name="Layer 1" xmlns="http://www.w3.org/2000/svg" viewBox="0 0 210.31 55.77">
  <defs>
    <style>
      .cls-1, .cls-2 {
        fill: none;
      }

      .cls-3 {
        fill: #eeedef;
      }

      .cls-2 {
        stroke: #2673ff;
        stroke-width: 5px;
      }

      .cls-4 {
        isolation: isolate;
      }
    </style>
  </defs>
  <g id="Rectangle_38" data-name="Rectangle 38">
    <path class="cls-1" d="m27.88,1.11h154.54c14.79,0,26.78,11.99,26.78,26.78h0c0,14.79-11.99,26.78-26.78,26.78H27.88c-14.79,0-26.78-11.99-26.78-26.78h0C1.11,13.09,13.09,1.11,27.88,1.11Z"/>
    <path class="cls-2" d="m27.88,2.5h154.54c14.02,0,25.38,11.37,25.38,25.38h0c0,14.02-11.36,25.38-25.38,25.38H27.88c-14.02,0-25.38-11.37-25.38-25.38h0C2.5,13.87,13.87,2.5,27.88,2.5Z"/>
  </g>
  <g id="Projekter" class="cls-4">
    <g class="cls-4">
      <path class="cls-3" d="m69.09,21.11c.9,0,1.68.15,2.32.45.64.3,1.13.74,1.47,1.31.34.57.51,1.25.51,2.06,0,.48-.07.96-.22,1.43-.14.47-.38.9-.69,1.28-.32.38-.74.69-1.26.92s-1.16.35-1.91.35h-1.77v4.33h-1.77v-12.13h3.33Zm.22,6.06c.45,0,.82-.07,1.12-.22.3-.15.54-.33.71-.56s.3-.47.37-.73.11-.49.11-.69c0-.22-.04-.46-.11-.71s-.19-.49-.36-.7c-.17-.22-.4-.4-.69-.54s-.65-.21-1.09-.21h-1.84v4.35h1.77Z"/>
      <path class="cls-3" d="m76.98,26.25l.17,2.01-.05-.29c.18-.42.44-.79.79-1.09.35-.3.71-.53,1.08-.69.37-.16.69-.24.95-.24l-.1,1.71c-.52-.03-.98.07-1.38.3-.4.23-.71.55-.93.94s-.33.8-.33,1.24v3.11h-1.71v-7h1.52Z"/>
      <path class="cls-3" d="m80.96,29.68c0-.7.17-1.34.5-1.91.33-.57.8-1.02,1.39-1.35.59-.33,1.27-.49,2.04-.49s1.44.17,2.02.49c.57.33,1.02.78,1.34,1.35.32.57.48,1.21.48,1.91s-.16,1.34-.48,1.91c-.32.57-.77,1.02-1.35,1.35s-1.26.49-2.04.49-1.42-.15-2-.46c-.58-.31-1.05-.74-1.39-1.31-.34-.56-.51-1.22-.51-1.98Zm1.74,0c0,.45.09.84.28,1.19.19.35.45.62.77.83.32.21.68.31,1.07.31.42,0,.8-.1,1.13-.31.33-.21.58-.49.76-.84s.27-.75.27-1.18-.09-.81-.27-1.16-.43-.63-.75-.84c-.32-.21-.7-.32-1.14-.32-.4,0-.76.11-1.09.32s-.58.49-.76.84c-.18.35-.28.74-.28,1.16Z"/>
      <path class="cls-3" d="m90.94,36.62l-1-1.07c.32-.26.57-.58.75-.97s.26-.85.26-1.39v-6.95h1.72v7.03c0,.8-.13,1.48-.4,2.03-.27.55-.71.99-1.32,1.32Zm-.12-12.9c0-.27.11-.49.33-.67.22-.18.45-.27.69-.27s.47.09.67.27c.2.18.3.4.3.67s-.1.49-.3.67c-.2.18-.42.27-.67.27s-.48-.09-.69-.27-.33-.4-.33-.67Z"/>
      <path class="cls-3" d="m98.53,33.43c-.8,0-1.5-.16-2.08-.49-.59-.32-1.04-.77-1.35-1.33s-.47-1.21-.47-1.93.18-1.32.53-1.89.82-1.02,1.41-1.36c.59-.33,1.26-.5,1.99-.5.94,0,1.72.28,2.33.83.62.55,1.03,1.32,1.25,2.3l-5.69,1.96-.42-.97,4.57-1.67-.35.23c-.13-.35-.35-.65-.64-.91-.29-.26-.69-.39-1.19-.39-.41,0-.78.1-1.09.29-.31.2-.56.46-.75.8-.18.34-.28.73-.28,1.18,0,.48.1.9.29,1.25.2.35.46.62.8.82.34.2.72.29,1.15.29.29,0,.57-.05.85-.16.28-.11.54-.24.77-.41l.8,1.27c-.37.23-.77.42-1.2.57-.43.14-.85.22-1.26.22Z"/>
      <path class="cls-3" d="m104.06,33.24v-13h1.72v13h-1.72Zm1.19-2.18l-.17-1.64,4.25-3.36,1.04.94-5.12,4.07Zm2.26-2.51l3.2,4.69h-2.01l-2.34-3.72,1.16-.97Z"/>
      <path class="cls-3" d="m113.23,23.15h1.72v3.11h1.88v1.34h-1.88v5.64h-1.72v-5.64h-1.24v-1.34h1.24v-3.11Z"/>
      <path class="cls-3" d="m121.98,33.43c-.8,0-1.5-.16-2.08-.49-.59-.32-1.04-.77-1.35-1.33s-.47-1.21-.47-1.93.18-1.32.53-1.89.82-1.02,1.41-1.36c.59-.33,1.26-.5,1.99-.5.94,0,1.72.28,2.33.83.62.55,1.03,1.32,1.25,2.3l-5.69,1.96-.42-.97,4.57-1.67-.35.23c-.13-.35-.35-.65-.64-.91-.29-.26-.69-.39-1.19-.39-.41,0-.78.1-1.09.29-.31.2-.56.46-.75.8-.18.34-.28.73-.28,1.18,0,.48.1.9.29,1.25.2.35.46.62.8.82.34.2.72.29,1.15.29.29,0,.57-.05.85-.16.28-.11.54-.24.77-.41l.8,1.27c-.37.23-.77.42-1.2.57-.43.14-.85.22-1.26.22Z"/>
      <path class="cls-3" d="m129.03,26.25l.17,2.01-.05-.29c.18-.42.44-.79.79-1.09.35-.3.71-.53,1.08-.69.37-.16.69-.24.95-.24l-.1,1.71c-.52-.03-.98.07-1.38.3-.4.23-.71.55-.93.94s-.33.8-.33,1.24v3.11h-1.71v-7h1.52Z"/>
    </g>
  </g>
  <g id="Group_16" data-name="Group 16">
    <g id="Line_1" data-name="Line 1">
      <path class="cls-3" d="m154.03,29.06c-.23,0-.45-.08-.64-.23l-7.15-5.97c-.42-.35-.48-.98-.13-1.41s.98-.48,1.41-.13l7.15,5.97c.42.35.48.98.13,1.41-.2.24-.48.36-.77.36Z"/>
    </g>
    <g id="Line_2" data-name="Line 2">
      <path class="cls-3" d="m146.88,35.03c-.29,0-.57-.12-.77-.36-.35-.42-.3-1.05.13-1.41l7.15-5.97c.42-.35,1.05-.3,1.41.13s.3,1.05-.13,1.41l-7.15,5.97c-.19.16-.41.23-.64.23Z"/>
    </g>
  </g>
</svg>