<?xml version="1.0" encoding="UTF-8"?>
<svg id="Layer_1" data-name="Layer 1" xmlns="http://www.w3.org/2000/svg" viewBox="0 0 56.77 56.76">
  <path d="m56.77,12.29C56.8,5.51,51.29-.04,44.41,0,33.73.07,23.05.08,12.37,0,5.52-.05-.11,5.5,0,12.43c.08,5.31.02,10.63.02,15.94s.07,10.63-.02,15.94c-.11,6.95,5.52,12.49,12.36,12.44,10.68-.07,21.36-.07,32.04,0,6.87.05,12.4-5.49,12.37-12.28-.05-10.73-.05-21.45,0-32.18Zm-25.89,8.48c.13.27.71.44,1.09.45,1.57.05,3.15.06,4.72.01.91-.03,1.25.33,1.15,1.22-.18,1.66-.26,3.34-.53,4.99-.06.37-.7.88-1.12.91-1.27.12-2.56.12-3.83.03-1.21-.09-1.61.31-1.6,1.56.06,5.21-.02,10.43.05,15.64.02,1.34-.34,1.86-1.73,1.75-1.42-.11-2.85-.06-4.28-.01-.91.03-1.21-.33-1.2-1.21.04-2.75.01-5.51.01-8.26,0-2.71-.04-5.41.02-8.12.02-1.05-.35-1.34-1.36-1.34-3.38-.03-3.38-.06-3.38-3.41,0-3.58,0-3.6,3.53-3.71.87-.03,1.25-.27,1.21-1.19-.05-1.23-.03-2.46,0-3.69.1-4.07,2.36-6.57,6.4-6.86,2.25-.16,4.53-.11,6.79-.04.36.01.98.63,1,.99.11,1.72.1,3.44,0,5.16-.02.33-.58.87-.94.91-1.12.12-2.26.03-3.39.06-2.24.07-3.57,2.16-2.62,4.16Z"/>
</svg>