<?xml version="1.0" encoding="UTF-8"?>
<svg id="Layer_1" data-name="Layer 1" xmlns="http://www.w3.org/2000/svg" viewBox="0 0 56.88 56.9">
  <path d="m56.78,19.59c-.01-2.05-.19-4.12-.53-6.14C54.66,3.99,48.21.67,40.75.27,33.19-.15,25.59,0,18.01.18c-2.75.06-5.61.56-8.2,1.49C3.15,4.05.56,9.59.22,16.09c-.38,7.27-.16,14.57-.13,21.85,0,1.8.22,3.62.5,5.4,1.49,9.27,7.81,12.83,15.82,13.37,3.97.27,7.97.05,11.96.05v.07c3.4,0,6.81.19,10.19-.06,2.86-.21,5.82-.56,8.5-1.51,6.66-2.36,9.24-7.91,9.59-14.41.38-7.07.17-14.17.12-21.26Zm-5.38,21.4c-.18,6.34-4.14,10.14-10.51,10.46-4.12.2-8.26.04-12.39.04v.06c-3.84,0-7.68.16-11.51-.06-2.11-.13-4.33-.59-6.24-1.46-3.7-1.69-5.18-5.13-5.26-8.92-.19-8.4-.25-16.82,0-25.22.18-6.27,4.13-10.18,10.43-10.36,8.36-.24,16.73-.24,25.08,0,6.29.18,10.22,4.11,10.4,10.39.24,8.35.24,16.72,0,25.07Z"/>
  <path d="m28.5,13.87c-8.09-.02-14.66,6.5-14.67,14.58,0,8.09,6.52,14.63,14.61,14.62,8.07,0,14.61-6.57,14.6-14.65-.02-8.01-6.54-14.53-14.55-14.55Zm-.02,24.01c-5.23,0-9.46-4.21-9.45-9.44,0-5.15,4.22-9.37,9.37-9.37,5.23,0,9.46,4.21,9.45,9.44,0,5.15-4.22,9.37-9.37,9.37Z"/>
  <path d="m43.66,9.96c-1.96-.05-3.38,1.29-3.44,3.22-.06,2.04,1.28,3.48,3.27,3.52,2.04.04,3.45-1.32,3.46-3.34,0-1.93-1.37-3.35-3.3-3.39Z"/>
</svg>