<?xml version="1.0" encoding="UTF-8"?>
<svg id="Layer_1" data-name="Layer 1" xmlns="http://www.w3.org/2000/svg" viewBox="0 0 796.85 2163.11">
  <defs>
    <style>
      .cls-1 {
        fill: #ffb000;
      }

      .cls-2 {
        fill: #36f;
      }
    </style>
  </defs>
  <g>
    <path class="cls-1" d="m94.7,396.39c-9.6-7.86-23.52-11.79-41.76-11.79H9.02v28.4h-.05v1750.11h18.08V476.58h32.01c16.32,0,28.74-3.99,37.26-11.97,8.52-7.98,12.78-19.47,12.78-34.47s-4.8-25.89-14.4-33.75Zm-6.48,42.57c-2.76,2.28-6.93,3.99-12.51,5.13-5.58,1.14-12.63,1.71-21.15,1.71h-27.51v-30.42h27.51c8.52,0,15.57.57,21.15,1.71,5.58,1.14,9.75,2.82,12.51,5.04,2.76,2.22,4.14,4.95,4.14,8.19,0,3.48-1.38,6.36-4.14,8.64Z"/>
    <path class="cls-1" d="m194.24,418.71c-7.32-4.14-15.96-6.21-25.92-6.21s-18.78,2.07-26.1,6.21c-7.32,4.14-12.87,10.14-16.65,18-3.78,7.86-5.67,17.25-5.67,28.17s1.89,20.52,5.67,28.44,9.33,13.98,16.65,18.18c7.32,4.2,16.02,6.3,26.1,6.3s18.6-2.1,25.92-6.3c7.32-4.2,12.9-10.26,16.74-18.18,3.84-7.92,5.76-17.4,5.76-28.44s-1.92-20.31-5.76-28.17c-3.84-7.86-9.42-13.86-16.74-18Zm-1.44,61.38c-5.88,3.66-14.04,5.49-24.48,5.49s-18.78-1.83-24.66-5.49c-5.88-3.66-8.82-8.73-8.82-15.21s2.94-11.31,8.82-14.85c5.88-3.54,14.1-5.31,24.66-5.31s18.6,1.77,24.48,5.31c5.88,3.54,8.82,8.49,8.82,14.85s-2.94,11.55-8.82,15.21Z"/>
    <path class="cls-1" d="m270.74,418.44c-5.88,3.96-11.16,9.96-15.84,18h-1.08l-.9-22.14h-15.48v101.7h18v-44.64c0-4.32.54-8.34,1.62-12.06,1.08-3.72,3.81-7.17,8.19-10.35,4.38-3.18,10.95-4.77,19.71-4.77,8.04,0,15.6,1.32,22.68,3.96v-31.5c-5.28-2.76-10.86-4.14-16.74-4.14-7.56,0-14.28,1.98-20.16,5.94Z"/>
    <path class="cls-1" d="m369.2,382.8h-10.08c-2.28,6.72-5.46,12.69-9.54,17.91-4.08,5.22-8.88,9.45-14.4,12.69-5.52,3.24-11.7,5.34-18.54,6.3v13.14h34.56v83.16h18v-83.16h35.1v-18.54h-35.1v-31.5Z"/>
    <path class="cls-1" d="m437.33,384.33c-7.14,6.3-10.71,14.91-10.71,25.83,0,1.38.07,2.76.19,4.14h-21.43v18.54h21.24v83.16h18v-83.16h35.46v-18.54h-36.54c0-3,1.74-5.37,5.22-7.11,3.48-1.74,8.1-2.61,13.86-2.61,2.88,0,6,.24,9.36.72,3.36.48,6.06,1.08,8.1,1.8v-30.6c-4.56-1.08-9.3-1.62-14.22-1.62-11.88,0-21.39,3.15-28.53,9.45Z"/>
    <path class="cls-1" d="m561.62,418.71c-7.32-4.14-15.96-6.21-25.92-6.21s-18.78,2.07-26.1,6.21c-7.32,4.14-12.87,10.14-16.65,18-3.78,7.86-5.67,17.25-5.67,28.17s1.89,20.52,5.67,28.44,9.33,13.98,16.65,18.18c7.32,4.2,16.02,6.3,26.1,6.3s18.6-2.1,25.92-6.3c7.32-4.2,12.9-10.26,16.74-18.18,3.84-7.92,5.76-17.4,5.76-28.44s-1.92-20.31-5.76-28.17c-3.84-7.86-9.42-13.86-16.74-18Zm-1.44,61.38c-5.88,3.66-14.04,5.49-24.48,5.49s-18.78-1.83-24.66-5.49c-5.88-3.66-8.82-8.73-8.82-15.21s2.94-11.31,8.82-14.85c5.88-3.54,14.1-5.31,24.66-5.31s18.6,1.77,24.48,5.31c5.88,3.54,8.82,8.49,8.82,14.85s-2.94,11.55-8.82,15.21Z"/>
    <path class="cls-1" d="m661.69,375.6c-3.96,0-7.08,1.17-9.36,3.51-2.28,2.34-3.42,5.61-3.42,9.81s1.14,7.71,3.42,10.17c2.28,2.46,5.46,3.69,9.54,3.69s7.47-1.23,9.81-3.69c2.34-2.46,3.51-5.85,3.51-10.17s-1.2-7.47-3.6-9.81c-2.4-2.34-5.7-3.51-9.9-3.51Z"/>
    <rect class="cls-1" x="652.51" y="414.3" width="18.72" height="101.7"/>
    <path class="cls-1" d="m784.09,436.71c-3.84-7.86-9.42-13.86-16.74-18-7.32-4.14-15.96-6.21-25.92-6.21s-18.78,2.07-26.1,6.21c-7.32,4.14-12.87,10.14-16.65,18-3.78,7.86-5.67,17.25-5.67,28.17s1.89,20.52,5.67,28.44c3.78,7.92,9.33,13.98,16.65,18.18,7.32,4.2,16.02,6.3,26.1,6.3s18.6-2.1,25.92-6.3c7.32-4.2,12.9-10.26,16.74-18.18,3.84-7.92,5.76-17.4,5.76-28.44s-1.92-20.31-5.76-28.17Zm-18.18,43.38c-5.88,3.66-14.04,5.49-24.48,5.49s-18.78-1.83-24.66-5.49c-5.88-3.66-8.82-8.73-8.82-15.21s2.94-11.31,8.82-14.85c5.88-3.54,14.1-5.31,24.66-5.31s18.6,1.77,24.48,5.31c5.88,3.54,8.82,8.49,8.82,14.85s-2.94,11.55-8.82,15.21Z"/>
    <polygon class="cls-1" points="605.13 438 605.17 438 605.17 516 623.89 516 623.89 438 623.93 438 623.93 0 605.13 0 605.13 438"/>
  </g>
  <g>
    <polygon class="cls-2" points="454.06 565.1 433.87 565.1 433.87 551.69 428.53 551.69 428.53 589.19 433.87 589.19 433.87 574.24 454.06 574.24 454.06 589.19 459.4 589.19 459.4 551.69 454.06 551.69 454.06 565.1"/>
    <rect class="cls-2" x="467.98" y="560.17" width="5.34" height="29.02"/>
    <path class="cls-2" d="m470.6,549.12c-1.13,0-2.02.33-2.67,1-.65.67-.98,1.6-.98,2.8s.32,2.2.98,2.9c.65.7,1.56,1.05,2.72,1.05s2.13-.35,2.8-1.05c.67-.7,1-1.67,1-2.9s-.34-2.13-1.03-2.8c-.69-.67-1.63-1-2.82-1Z"/>
    <polygon class="cls-2" points="481.38 576.3 481.38 589.19 481.38 640.58 486.72 640.58 486.72 589.19 486.72 589.19 486.72 551.69 481.38 551.69 481.38 576.3"/>
    <path class="cls-2" d="m520.31,551.69h-5.08v14.12h-.31c-.89-1.92-2.21-3.42-3.95-4.52-1.75-1.1-3.7-1.64-5.85-1.64-2.43,0-4.55.61-6.34,1.82-1.8,1.22-3.17,2.98-4.11,5.29-.94,2.31-1.41,5.06-1.41,8.24s.45,5.68,1.36,7.88c.91,2.21,2.22,3.9,3.93,5.06,1.71,1.16,3.75,1.75,6.11,1.75s4.43-.55,6.21-1.64c1.78-1.1,3.18-2.67,4.21-4.73h.26l.1,5.85h5.19l-.31-11.15v-26.35Zm-7.24,27.2c-1.58,1.01-3.75,1.52-6.52,1.52h-.05c-2.81,0-5-.5-6.57-1.52-1.58-1.01-2.36-2.42-2.36-4.24s.79-3.18,2.36-4.19c1.57-1.01,3.77-1.51,6.6-1.51,2.79,0,4.98.51,6.55,1.51,1.57,1.01,2.36,2.41,2.36,4.19s-.79,3.23-2.36,4.24Z"/>
    <path class="cls-2" d="m554.31,560.17h-5.19v14.48c0,1.23-.33,2.29-.98,3.18-.65.89-1.59,1.57-2.83,2.03-1.23.46-2.69.69-4.37.69s-3.11-.21-4.29-.62c-1.18-.41-2.1-1.01-2.75-1.8-.65-.79-.98-1.73-.98-2.82v-15.15h-5.14v15.92c0,2.84.42,5.28,1.26,7.32.84,2.04,2.05,3.6,3.65,4.67,1.59,1.08,3.5,1.62,5.73,1.62,2.36,0,4.48-.55,6.34-1.64,1.87-1.1,3.28-2.67,4.24-4.73h.31l.15,5.85h5.14l-.31-11.15v-17.87Z"/>
    <path class="cls-2" d="m571.62,561.35c-1.68,1.13-3.18,2.84-4.52,5.14h-.31l-.26-6.32h-4.42v29.02h5.14v-12.74c0-1.23.15-2.38.46-3.44.31-1.06,1.09-2.05,2.34-2.95,1.25-.91,3.12-1.36,5.62-1.36,2.29,0,4.45.38,6.47,1.13v-8.99c-1.51-.79-3.1-1.18-4.78-1.18-2.16,0-4.08.56-5.75,1.69Z"/>
    <polygon class="cls-2" points="606.96 573.98 626.93 573.98 626.93 566.38 606.96 566.38 606.96 560.48 628.12 560.48 628.12 551.69 602.02 551.69 602.02 589.19 628.78 589.19 628.78 580.4 606.96 580.4 606.96 573.98"/>
    <rect class="cls-2" x="649.58" y="560.17" width="5.34" height="29.02"/>
    <path class="cls-2" d="m652.2,549.12c-1.13,0-2.02.33-2.67,1-.65.67-.98,1.6-.98,2.8s.32,2.2.98,2.9c.65.7,1.56,1.05,2.72,1.05s2.13-.35,2.8-1.05c.67-.7,1-1.67,1-2.9s-.34-2.13-1.03-2.8c-.69-.67-1.63-1-2.82-1Z"/>
    <path class="cls-2" d="m688.21,560.17h-4.11l-.77,5.65h-.31c-.82-1.88-2.11-3.38-3.88-4.49-1.76-1.11-3.76-1.67-5.98-1.67-2.47,0-4.59.61-6.37,1.82-1.78,1.22-3.15,2.98-4.11,5.29-.96,2.31-1.44,5.06-1.44,8.24s.45,5.68,1.36,7.88,2.23,3.9,3.96,5.06c1.73,1.16,3.77,1.75,6.14,1.75s4.4-.55,6.21-1.64c1.81-1.1,3.22-2.67,4.21-4.73h.36l.15,5.85h4.98l-.41-11.15v-17.87Zm-6.88,18.72c-1.61,1.01-3.82,1.52-6.63,1.52s-5.08-.5-6.7-1.52c-1.63-1.01-2.44-2.42-2.44-4.24s.8-3.18,2.41-4.19c1.61-1.01,3.85-1.52,6.73-1.52s5.02.51,6.63,1.52c1.61,1.01,2.41,2.42,2.41,4.24s-.81,3.18-2.41,4.19Z"/>
    <path class="cls-2" d="m714.45,573.83c-1.51-.41-3.68-.84-6.52-1.28l-1.03-.15-.67-.1c-1.54-.24-2.82-.47-3.83-.69-1.01-.22-1.81-.47-2.39-.75-.58-.27-.87-.6-.87-.98,0-.68.62-1.2,1.87-1.54,1.25-.34,2.92-.51,5.01-.51s4.25.24,6.5.72c2.24.48,4.01,1.03,5.32,1.64v-6.32c-1.51-1.34-3.34-2.37-5.5-3.11-2.16-.74-4.35-1.1-6.57-1.1-2.36,0-4.39.4-6.09,1.21-1.69.81-2.97,1.91-3.83,3.31-.86,1.4-1.28,2.98-1.28,4.73,0,1.95.48,3.45,1.44,4.49.96,1.04,2.18,1.78,3.67,2.21,1.49.43,3.54.81,6.14,1.16l1.18.21.82.1c1.54.24,2.82.47,3.85.69,1.03.22,1.81.46,2.36.72.55.26.82.54.82.85,0,.69-.69,1.22-2.08,1.62s-3.31.59-5.78.59c-2.09,0-4.18-.26-6.27-.77-2.09-.51-4.09-1.21-6.01-2.11v6.57c1.68,1.44,3.61,2.54,5.8,3.31,2.19.77,4.49,1.16,6.88,1.16s4.6-.39,6.42-1.18c1.81-.79,3.22-1.9,4.21-3.34.99-1.44,1.49-3.1,1.49-4.98s-.47-3.27-1.41-4.26c-.94-.99-2.17-1.69-3.67-2.11Z"/>
    <path class="cls-2" d="m750.1,573.21c-.07-2.88-.62-5.32-1.64-7.34-1.03-2.02-2.49-3.56-4.39-4.62-1.9-1.06-4.13-1.59-6.7-1.59-2.88,0-5.36.6-7.45,1.8-2.09,1.2-3.68,2.94-4.78,5.21-1.1,2.28-1.64,4.97-1.64,8.09s.58,5.85,1.75,8.09c1.16,2.24,2.81,3.95,4.93,5.11,2.12,1.16,4.57,1.75,7.34,1.75,2.23,0,4.41-.4,6.55-1.21,2.14-.8,4-1.84,5.57-3.11l.05-6.01c-1.58.69-3.3,1.23-5.19,1.64-1.88.41-3.89.62-6.01.62-3.77,0-6.58-.57-8.45-1.7-1.2-.73-2.01-1.7-2.44-2.93h19.57l2.93-3.8Zm-20.44-3.57c1.61-1.11,4.04-1.67,7.29-1.67,3.01,0,5.35.51,7.01,1.52,1.2.73,1.96,1.67,2.29,2.8h-18.62c.39-1.09,1.06-1.98,2.02-2.65Z"/>
    <path class="cls-2" d="m776.78,571.21c.63.79.95,1.73.95,2.82v9.7h-.01v27.76h5.14v-22.31h0v-15.92c0-2.84-.46-5.28-1.39-7.32-.92-2.04-2.26-3.6-4.01-4.67-1.75-1.08-3.82-1.62-6.21-1.62-2.6,0-4.72.63-6.34,1.9-1.63,1.27-2.85,3.08-3.67,5.44h-.36l-.31-6.83h-4.31v29.02h5.14v-14.48c0-1.85.75-3.29,2.26-4.34,1.51-1.04,3.58-1.57,6.21-1.57,1.64,0,3.05.21,4.21.62,1.16.41,2.06,1.01,2.7,1.8Z"/>
    <rect class="cls-2" x="777.72" y="604.15" width="5.14" height="36.43"/>
    <polygon class="cls-2" points="636.03 551.69 636.02 551.69 636.02 589.19 641.37 589.19 641.37 580.76 641.37 551.69 641.37 516.47 636.03 516.47 636.03 551.69"/>
  </g>
</svg>