<?xml version="1.0" encoding="UTF-8"?>
<svg id="Layer_1" data-name="Layer 1" xmlns="http://www.w3.org/2000/svg" viewBox="0 0 355.2 242.33">
  <defs>
    <style>
      .cls-1 {
        fill: #ffb000;
      }

      .cls-2, .cls-3 {
        fill: #36f;
      }

      .cls-3 {
        font-family: AntipolVFRoman-WideBold, 'Antipol VF';
        font-size: 24.28px;
        font-variation-settings: 'wdth' 135, 'wght' 700, 'STCH' 1;
        font-weight: 700;
      }
    </style>
  </defs>
  <path class="cls-1" d="m11.63,241.69V111.07h14.27c7.28,0,12.82-1.78,16.62-5.34,3.8-3.56,5.7-8.68,5.7-15.37s-2.14-11.55-6.42-15.05c-4.28-3.5-10.49-5.26-18.62-5.26H3.59v12.67h-.02v158.97h8.06Zm0-157.91h12.27c3.8,0,6.94.25,9.43.76,2.49.51,4.35,1.26,5.58,2.25,1.23.99,1.85,2.21,1.85,3.65,0,1.55-.62,2.84-1.85,3.85-1.23,1.02-3.09,1.78-5.58,2.29-2.49.51-5.63.76-9.43.76h-12.27v-13.57Z"/>
  <path class="cls-1" d="m86.2,85.26c-3.26-1.85-7.12-2.77-11.56-2.77s-8.38.92-11.64,2.77c-3.26,1.85-5.74,4.52-7.43,8.03-1.69,3.51-2.53,7.69-2.53,12.56s.84,9.15,2.53,12.68,4.16,6.24,7.43,8.11c3.26,1.87,7.14,2.81,11.64,2.81s8.3-.94,11.56-2.81c3.26-1.87,5.75-4.58,7.47-8.11,1.71-3.53,2.57-7.76,2.57-12.68s-.86-9.06-2.57-12.56c-1.71-3.5-4.2-6.18-7.47-8.03Zm-.64,27.37c-2.62,1.63-6.26,2.45-10.92,2.45s-8.38-.82-11-2.45c-2.62-1.63-3.93-3.89-3.93-6.78s1.31-5.04,3.93-6.62c2.62-1.58,6.29-2.37,11-2.37s8.3.79,10.92,2.37c2.62,1.58,3.93,3.79,3.93,6.62s-1.31,5.15-3.93,6.78Z"/>
  <path class="cls-1" d="m120.31,85.14c-2.62,1.77-4.98,4.44-7.06,8.03h-.48l-.4-9.87h-6.9v45.36h8.03v-19.91c0-1.93.24-3.72.72-5.38.48-1.66,1.7-3.2,3.65-4.62,1.95-1.42,4.88-2.13,8.79-2.13,3.58,0,6.96.59,10.12,1.77v-14.05c-2.36-1.23-4.84-1.85-7.47-1.85-3.37,0-6.37.88-8.99,2.65Z"/>
  <path class="cls-1" d="m164.22,69.24h-4.5c-1.02,3-2.44,5.66-4.25,7.99-1.82,2.33-3.96,4.21-6.42,5.66-2.46,1.44-5.22,2.38-8.27,2.81v5.86h15.41v37.09h8.03v-37.09h15.65v-8.27h-15.65v-14.05Z"/>
  <path class="cls-1" d="m194.61,69.93c-3.18,2.81-4.78,6.65-4.78,11.52,0,.62.03,1.23.08,1.85h-9.56v8.27h9.47v37.09h8.03v-37.09h15.81v-8.27h-16.3c0-1.34.78-2.39,2.33-3.17,1.55-.78,3.61-1.16,6.18-1.16,1.28,0,2.68.11,4.17.32,1.5.21,2.7.48,3.61.8v-13.65c-2.03-.48-4.15-.72-6.34-.72-5.3,0-9.54,1.41-12.72,4.21Z"/>
  <path class="cls-1" d="m250.04,85.26c-3.26-1.85-7.12-2.77-11.56-2.77s-8.38.92-11.64,2.77c-3.26,1.85-5.74,4.52-7.43,8.03-1.69,3.51-2.53,7.69-2.53,12.56s.84,9.15,2.53,12.68,4.16,6.24,7.43,8.11c3.26,1.87,7.14,2.81,11.64,2.81s8.3-.94,11.56-2.81c3.26-1.87,5.75-4.58,7.47-8.11,1.71-3.53,2.57-7.76,2.57-12.68s-.86-9.06-2.57-12.56c-1.71-3.5-4.2-6.18-7.47-8.03Zm-.64,27.37c-2.62,1.63-6.26,2.45-10.92,2.45s-8.38-.82-11-2.45c-2.62-1.63-3.93-3.89-3.93-6.78s1.31-5.04,3.93-6.62c2.62-1.58,6.29-2.37,11-2.37s8.3.79,10.92,2.37c2.62,1.58,3.93,3.79,3.93,6.62s-1.31,5.15-3.93,6.78Z"/>
  <path class="cls-1" d="m294.67,66.03c-1.77,0-3.16.52-4.17,1.57-1.02,1.04-1.53,2.5-1.53,4.37s.51,3.44,1.53,4.54c1.02,1.1,2.43,1.65,4.25,1.65s3.33-.55,4.37-1.65c1.04-1.1,1.57-2.61,1.57-4.54s-.54-3.33-1.61-4.37c-1.07-1.04-2.54-1.57-4.42-1.57Z"/>
  <rect class="cls-1" x="290.58" y="83.29" width="8.35" height="45.36"/>
  <path class="cls-1" d="m349.26,93.29c-1.71-3.5-4.2-6.18-7.47-8.03-3.27-1.85-7.12-2.77-11.56-2.77s-8.38.92-11.64,2.77c-3.27,1.85-5.74,4.52-7.43,8.03-1.69,3.51-2.53,7.69-2.53,12.56s.84,9.15,2.53,12.68c1.69,3.53,4.16,6.24,7.43,8.11,3.26,1.87,7.14,2.81,11.64,2.81s8.29-.94,11.56-2.81c3.26-1.87,5.75-4.58,7.47-8.11,1.71-3.53,2.57-7.76,2.57-12.68s-.86-9.06-2.57-12.56Zm-8.11,19.35c-2.62,1.63-6.26,2.45-10.92,2.45s-8.38-.82-11-2.45c-2.62-1.63-3.93-3.89-3.93-6.78s1.31-5.04,3.93-6.62c2.62-1.58,6.29-2.37,11-2.37s8.29.79,10.92,2.37c2.62,1.58,3.93,3.79,3.93,6.62s-1.31,5.15-3.93,6.78Z"/>
  <polygon class="cls-1" points="269.45 .66 269.45 93.86 269.47 93.86 269.47 128.65 277.82 128.65 277.82 93.86 277.83 93.86 277.83 .66 269.45 .66"/>
  <text class="cls-3" transform="translate(182.94 157.92)"><tspan x="0" y="0">Hildur Eliasen</tspan></text>
  <path class="cls-2" d="m185.1,140.12h2.52v7.43l-1.12-1.09h11.78l-1.12,1.09v-7.43h2.53v17.72h-2.53v-8.21l1.12,1.14h-11.78l1.12-1.14v8.21h-2.52v-17.72Z"/>
  <path class="cls-2" d="m206.34,142.07c-.32.33-.76.5-1.32.5s-.98-.17-1.29-.5c-.31-.33-.46-.79-.46-1.37s.15-1.01.46-1.32c.31-.32.73-.47,1.26-.47.57,0,1.01.16,1.33.47.32.32.49.76.49,1.32s-.16,1.04-.47,1.37Zm-2.59,2.05h2.52v13.72h-2.52v-13.72Z"/>
  <path class="cls-2" d="m216.36,147.24c.44-1.09,1.09-1.93,1.94-2.5.85-.57,1.85-.86,3-.86,1.02,0,1.94.26,2.77.78s1.45,1.23,1.87,2.14h.15v-6.68h2.4v12.46l.15,5.27h-2.45l-.05-2.77h-.12c-.49.97-1.15,1.72-1.99,2.23-.84.52-1.82.78-2.94.78s-2.08-.27-2.89-.83-1.43-1.35-1.86-2.39c-.43-1.04-.64-2.29-.64-3.73s.22-2.8.67-3.9Zm2.49,5.73c.74.48,1.78.72,3.11.72h.02c1.31,0,2.34-.24,3.08-.72.74-.48,1.12-1.15,1.12-2s-.37-1.5-1.12-1.98c-.74-.48-1.78-.72-3.11-.72h.02c-1.34,0-2.39.24-3.13.72-.74.48-1.12,1.14-1.12,1.98s.37,1.53,1.12,2Z"/>
  <path class="cls-2" d="m234.46,144.12v7.16c0,.52.15.96.46,1.34.31.37.74.66,1.3.85.56.19,1.23.29,2.03.29s1.48-.11,2.06-.33c.58-.22,1.03-.54,1.34-.96.31-.42.46-.92.46-1.51v-6.85h2.45v8.45l.15,5.27h-2.43l-.07-2.77h-.15c-.45.97-1.12,1.72-2,2.23-.88.52-1.88.78-3,.78-1.05,0-1.95-.25-2.71-.76-.75-.51-1.33-1.25-1.72-2.21-.4-.96-.59-2.12-.59-3.46v-7.53h2.43Z"/>
  <path class="cls-2" d="m248.26,144.12h2.09l.12,2.99h.15c.63-1.08,1.34-1.89,2.14-2.43.79-.53,1.7-.8,2.72-.8.79,0,1.55.19,2.26.56v4.25c-.96-.36-1.97-.53-3.06-.53-1.18,0-2.07.21-2.66.64-.59.43-.96.89-1.1,1.4-.15.5-.22,1.04-.22,1.63v6.02h-2.43v-13.72Z"/>
  <path class="cls-2" d="m267.12,140.12h12.33v4.15h-11.07l1.07-1.12v5.03l-1.07-1.12h10.51v3.59h-10.51l1.07-1.12v5.27l-1.07-1.12h11.39v4.15h-12.65v-17.72Z"/>
  <path class="cls-2" d="m285.72,157.84h-2.52v-17.72h2.52v17.72Z"/>
  <path class="cls-2" d="m292.19,142.07c-.32.33-.76.5-1.32.5s-.98-.17-1.29-.5c-.31-.33-.46-.79-.46-1.37s.15-1.01.46-1.32c.31-.32.73-.47,1.26-.47.57,0,1.01.16,1.33.47.32.32.49.76.49,1.32s-.16,1.04-.47,1.37Zm-2.59,2.05h2.52v13.72h-2.52v-13.72Z"/>
  <path class="cls-2" d="m295.79,147.24c.45-1.09,1.1-1.93,1.94-2.5.84-.57,1.85-.86,3.01-.86,1.05,0,1.99.26,2.83.79.83.53,1.44,1.23,1.83,2.12h.15l.36-2.67h1.94v8.45l.19,5.27h-2.35l-.07-2.77h-.17c-.47.97-1.13,1.72-1.99,2.23-.86.52-1.84.78-2.94.78s-2.08-.27-2.9-.83c-.82-.55-1.44-1.35-1.87-2.39-.43-1.04-.64-2.29-.64-3.73s.23-2.8.68-3.9Zm2.51,5.73c.77.48,1.82.72,3.17.72s2.37-.24,3.13-.72c.76-.48,1.14-1.14,1.14-1.98s-.38-1.53-1.14-2c-.76-.48-1.81-.72-3.13-.72s-2.42.24-3.18.72c-.76.48-1.14,1.14-1.14,1.98s.38,1.53,1.15,2Z"/>
  <path class="cls-2" d="m313.69,157.54c-1.04-.36-1.95-.89-2.74-1.57v-3.11c.91.42,1.85.75,2.84,1,.99.24,1.97.36,2.96.36,1.17,0,2.08-.09,2.73-.28.66-.19.98-.44.98-.76,0-.15-.13-.28-.39-.4-.26-.12-.63-.23-1.12-.34-.49-.1-1.09-.21-1.82-.33l-.39-.05-.56-.1c-1.23-.16-2.2-.34-2.9-.55-.7-.2-1.28-.55-1.74-1.04-.45-.49-.68-1.2-.68-2.12,0-.83.2-1.57.61-2.23.4-.66,1.01-1.19,1.81-1.57.8-.38,1.76-.57,2.88-.57,1.05,0,2.09.17,3.11.52,1.02.35,1.89.84,2.6,1.47v2.99c-.62-.29-1.45-.55-2.51-.78-1.06-.23-2.08-.34-3.07-.34s-1.78.08-2.37.24c-.59.16-.89.4-.89.73,0,.18.14.33.41.46.27.13.65.25,1.13.35.48.11,1.08.21,1.81.33l.32.05.49.07c1.34.21,2.37.41,3.08.61s1.29.53,1.74,1c.44.47.67,1.14.67,2.02s-.23,1.68-.7,2.35c-.47.68-1.13,1.21-1.99,1.58-.86.37-1.87.56-3.04.56s-2.22-.18-3.25-.55Z"/>
  <path class="cls-2" d="m327.7,157.26c-1-.55-1.78-1.36-2.33-2.42-.55-1.06-.83-2.33-.83-3.82s.26-2.75.78-3.82c.52-1.08,1.27-1.9,2.26-2.46.99-.57,2.16-.85,3.52-.85,1.21,0,2.27.25,3.17.75.9.5,1.59,1.23,2.08,2.19.49.96.74,2.11.78,3.47l-1.38,1.8h-9.86v-2.23h10.54l-1.02.66c0-.84-.39-1.5-1.18-1.98-.79-.48-1.89-.72-3.31-.72-1.54,0-2.69.26-3.45.79-.76.53-1.14,1.33-1.14,2.42s.44,1.92,1.32,2.45,2.21.8,3.99.8c1,0,1.95-.1,2.84-.29.89-.19,1.71-.45,2.45-.78l-.02,2.84c-.74.6-1.62,1.09-2.63,1.47-1.01.38-2.04.57-3.1.57-1.31,0-2.47-.27-3.47-.83Z"/>
  <path class="cls-2" d="m340.03,144.12h2.04l.15,3.23h.17c.39-1.12.97-1.98,1.74-2.57.77-.6,1.77-.9,3-.9,1.13,0,2.11.25,2.94.76s1.46,1.25,1.89,2.21c.44.96.66,2.12.66,3.46v7.53h-2.43v-7.16c0-.52-.15-.96-.45-1.34-.3-.37-.72-.66-1.27-.85-.55-.19-1.21-.29-1.99-.29-1.25,0-2.23.25-2.94.74-.71.49-1.07,1.18-1.07,2.05v6.85h-2.43v-13.72Z"/>
  <rect class="cls-2" x="350.18" y="155.27" width="2.43" height="30.39"/>
  <path class="cls-2" d="m212.61,140.12h-2.52c0,14.01,0,28.02,0,42.02h2.53c0-14.01,0-28.02,0-42.02Z"/>
  <rect class="cls-2" x="283.2" y="123.47" width="2.53" height="30.39"/>
</svg>