<?xml version="1.0" encoding="UTF-8"?>
<svg id="Layer_1" data-name="Layer 1" xmlns="http://www.w3.org/2000/svg" viewBox="0 0 56.77 56.76">
  <path d="m44.81,17.14c-.47-.67-1.15-.84-1.42-.88-.76-.12-1.34.2-1.5.3-2.69,1.55-5.44,3.07-8.15,4.5-1.88,1-3.81,1.99-5.74,2.94-1.94-.96-3.87-1.95-5.74-2.94-2.73-1.44-5.47-2.96-8.09-4.47-.21-.14-.79-.46-1.55-.34-.27.04-.95.21-1.42.88-.48.68-.4,1.38-.35,1.64.1.52.4,1,.82,1.32l14.97,8.88s.1.06.21.11c.36.17.76.26,1.16.26s.82-.09,1.18-.27c.09-.05.16-.09.19-.11l14.87-8.81.1-.07c.25-.19.68-.61.82-1.33.1-.58-.02-1.16-.35-1.63h0Z"/>
  <path d="m56.77,12.29C56.8,5.51,51.29-.04,44.41,0,33.73.07,23.05.08,12.37,0,5.52-.05-.11,5.5,0,12.43c.08,5.31.02,10.63.02,15.94s.07,10.63-.02,15.94c-.11,6.95,5.52,12.49,12.36,12.44,10.68-.07,21.36-.07,32.04,0,6.87.05,12.4-5.49,12.37-12.28-.05-10.73-.05-21.45,0-32.18Zm-7.23,27.11c.02,2.92-1.19,4.14-4.18,4.11-11.3-.1-22.6-.12-33.89,0-3.35.04-4.31-1.43-4.25-4.53.12-7.14.15-14.29,0-21.43-.07-3.3,1.29-4.4,4.44-4.32,5.65.14,11.3.04,16.95.04,5.48,0,10.97.12,16.45-.05,3.13-.09,4.59.95,4.53,4.24-.12,7.31-.08,14.62-.03,21.93Z"/>
</svg>